<svg width="254" height="254" viewBox="0 0 254 254" fill="none" xmlns="http://www.w3.org/2000/svg">
<g filter="url(#filter0_d_14_45)">
<path d="M237 123C237 184.304 187.304 234 126 234C64.6964 234 15 184.304 15 123C15 61.6964 64.6964 12 126 12C187.304 12 237 61.6964 237 123ZM31.9508 123C31.9508 174.942 74.0581 217.049 126 217.049C177.942 217.049 220.049 174.942 220.049 123C220.049 71.0581 177.942 28.9508 126 28.9508C74.0581 28.9508 31.9508 71.0581 31.9508 123Z" fill="#1E1E1E"/>
<path d="M237 123C237 184.304 187.304 234 126 234C64.6964 234 15 184.304 15 123C15 61.6964 64.6964 12 126 12C187.304 12 237 61.6964 237 123ZM31.9508 123C31.9508 174.942 74.0581 217.049 126 217.049C177.942 217.049 220.049 174.942 220.049 123C220.049 71.0581 177.942 28.9508 126 28.9508C74.0581 28.9508 31.9508 71.0581 31.9508 123Z" fill="#1E1E1E"/>
<line x1="28.4456" y1="24.9276" x2="53.4456" y2="49.9276" stroke="#1E1E1E" stroke-width="16"/>
<line x1="199.467" y1="195.949" x2="221.467" y2="217.949" stroke="#1E1E1E" stroke-width="16"/>
<line x1="204.153" y1="44.9277" x2="224.153" y2="24.9277" stroke="#1E1E1E" stroke-width="16"/>
<line x1="31.1319" y1="217.949" x2="50.1319" y2="198.949" stroke="#1E1E1E" stroke-width="16"/>
<path d="M41.2465 18.6232C41.2465 28.9086 32.9086 37.2465 22.6232 37.2465C12.3379 37.2465 4 28.9086 4 18.6232C4 8.33791 12.3379 0 22.6232 0C32.9086 0 41.2465 8.33791 41.2465 18.6232ZM14.0798 18.6232C14.0798 23.3417 17.9048 27.1667 22.6232 27.1667C27.3417 27.1667 31.1667 23.3417 31.1667 18.6232C31.1667 13.9048 27.3417 10.0798 22.6232 10.0798C17.9048 10.0798 14.0798 13.9048 14.0798 18.6232Z" fill="#1E1E1E"/>
<path d="M249.246 18.6232C249.246 28.9086 240.909 37.2465 230.623 37.2465C220.338 37.2465 212 28.9086 212 18.6232C212 8.33791 220.338 0 230.623 0C240.909 0 249.246 8.33791 249.246 18.6232ZM222.08 18.6232C222.08 23.3417 225.905 27.1667 230.623 27.1667C235.342 27.1667 239.167 23.3417 239.167 18.6232C239.167 13.9048 235.342 10.0798 230.623 10.0798C225.905 10.0798 222.08 13.9048 222.08 18.6232Z" fill="#1E1E1E"/>
<path d="M249.246 226.623C249.246 236.909 240.909 245.246 230.623 245.246C220.338 245.246 212 236.909 212 226.623C212 216.338 220.338 208 230.623 208C240.909 208 249.246 216.338 249.246 226.623ZM222.08 226.623C222.08 231.342 225.905 235.167 230.623 235.167C235.342 235.167 239.167 231.342 239.167 226.623C239.167 221.905 235.342 218.08 230.623 218.08C225.905 218.08 222.08 221.905 222.08 226.623Z" fill="#1E1E1E"/>
<path d="M41.2465 226.623C41.2465 236.909 32.9086 245.246 22.6232 245.246C12.3379 245.246 4 236.909 4 226.623C4 216.338 12.3379 208 22.6232 208C32.9086 208 41.2465 216.338 41.2465 226.623ZM14.0798 226.623C14.0798 231.342 17.9048 235.167 22.6232 235.167C27.3417 235.167 31.1667 231.342 31.1667 226.623C31.1667 221.905 27.3417 218.08 22.6232 218.08C17.9048 218.08 14.0798 221.905 14.0798 226.623Z" fill="#1E1E1E"/>
</g>
<g filter="url(#filter1_d_14_45)">
<path d="M60.96 81.928H80.928V138.76L116.768 81.928H136.736V165H116.768V107.272L80.928 165H60.96V81.928Z" fill="#1E1E1E"/>
<path d="M116.96 81.928H136.928V138.76L172.768 81.928H192.736V165H172.768V107.272L136.928 165H116.96V81.928Z" fill="#B91E1E"/>
<path d="M116.96 81.928H136.928V138.76L172.768 81.928H192.736V165H172.768V107.272L136.928 165H116.96V81.928Z" fill="#721616" fill-opacity="0.2"/>
</g>
<defs>
<filter id="filter0_d_14_45" x="0" y="0" width="253.246" height="253.246" filterUnits="userSpaceOnUse" color-interpolation-filters="sRGB">
<feFlood flood-opacity="0" result="BackgroundImageFix"/>
<feColorMatrix in="SourceAlpha" type="matrix" values="0 0 0 0 0 0 0 0 0 0 0 0 0 0 0 0 0 0 127 0" result="hardAlpha"/>
<feOffset dy="4"/>
<feGaussianBlur stdDeviation="2"/>
<feComposite in2="hardAlpha" operator="out"/>
<feColorMatrix type="matrix" values="0 0 0 0 0 0 0 0 0 0 0 0 0 0 0 0 0 0 0.25 0"/>
<feBlend mode="normal" in2="BackgroundImageFix" result="effect1_dropShadow_14_45"/>
<feBlend mode="normal" in="SourceGraphic" in2="effect1_dropShadow_14_45" result="shape"/>
</filter>
<filter id="filter1_d_14_45" x="56.96" y="81.928" width="139.776" height="91.072" filterUnits="userSpaceOnUse" color-interpolation-filters="sRGB">
<feFlood flood-opacity="0" result="BackgroundImageFix"/>
<feColorMatrix in="SourceAlpha" type="matrix" values="0 0 0 0 0 0 0 0 0 0 0 0 0 0 0 0 0 0 127 0" result="hardAlpha"/>
<feOffset dy="4"/>
<feGaussianBlur stdDeviation="2"/>
<feComposite in2="hardAlpha" operator="out"/>
<feColorMatrix type="matrix" values="0 0 0 0 0 0 0 0 0 0 0 0 0 0 0 0 0 0 0.25 0"/>
<feBlend mode="normal" in2="BackgroundImageFix" result="effect1_dropShadow_14_45"/>
<feBlend mode="normal" in="SourceGraphic" in2="effect1_dropShadow_14_45" result="shape"/>
</filter>
</defs>
</svg>
