<svg width="653" height="256" viewBox="0 0 653 256" fill="none" xmlns="http://www.w3.org/2000/svg">
<g filter="url(#filter0_d_13_35)">
<path d="M237 123C237 184.304 187.304 234 126 234C64.6964 234 15 184.304 15 123C15 61.6964 64.6964 12 126 12C187.304 12 237 61.6964 237 123ZM31.9508 123C31.9508 174.942 74.0581 217.049 126 217.049C177.942 217.049 220.049 174.942 220.049 123C220.049 71.0581 177.942 28.9508 126 28.9508C74.0581 28.9508 31.9508 71.0581 31.9508 123Z" fill="#1E1E1E"/>
<path d="M237 123C237 184.304 187.304 234 126 234C64.6964 234 15 184.304 15 123C15 61.6964 64.6964 12 126 12C187.304 12 237 61.6964 237 123ZM31.9508 123C31.9508 174.942 74.0581 217.049 126 217.049C177.942 217.049 220.049 174.942 220.049 123C220.049 71.0581 177.942 28.9508 126 28.9508C74.0581 28.9508 31.9508 71.0581 31.9508 123Z" fill="#1E1E1E"/>
<line x1="28.4456" y1="24.9276" x2="53.4456" y2="49.9276" stroke="#1E1E1E" stroke-width="16"/>
<line x1="199.467" y1="195.949" x2="221.467" y2="217.949" stroke="#1E1E1E" stroke-width="16"/>
<line x1="204.153" y1="44.9277" x2="224.153" y2="24.9277" stroke="#1E1E1E" stroke-width="16"/>
<line x1="31.1319" y1="217.949" x2="50.1319" y2="198.949" stroke="#1E1E1E" stroke-width="16"/>
<path d="M41.2465 18.6232C41.2465 28.9086 32.9086 37.2465 22.6232 37.2465C12.3379 37.2465 4 28.9086 4 18.6232C4 8.33791 12.3379 0 22.6232 0C32.9086 0 41.2465 8.33791 41.2465 18.6232ZM14.0798 18.6232C14.0798 23.3417 17.9048 27.1667 22.6232 27.1667C27.3417 27.1667 31.1667 23.3417 31.1667 18.6232C31.1667 13.9048 27.3417 10.0798 22.6232 10.0798C17.9048 10.0798 14.0798 13.9048 14.0798 18.6232Z" fill="#1E1E1E"/>
<path d="M249.246 18.6232C249.246 28.9086 240.909 37.2465 230.623 37.2465C220.338 37.2465 212 28.9086 212 18.6232C212 8.33791 220.338 0 230.623 0C240.909 0 249.246 8.33791 249.246 18.6232ZM222.08 18.6232C222.08 23.3417 225.905 27.1667 230.623 27.1667C235.342 27.1667 239.167 23.3417 239.167 18.6232C239.167 13.9048 235.342 10.0798 230.623 10.0798C225.905 10.0798 222.08 13.9048 222.08 18.6232Z" fill="#1E1E1E"/>
<path d="M249.246 226.623C249.246 236.909 240.909 245.246 230.623 245.246C220.338 245.246 212 236.909 212 226.623C212 216.338 220.338 208 230.623 208C240.909 208 249.246 216.338 249.246 226.623ZM222.08 226.623C222.08 231.342 225.905 235.167 230.623 235.167C235.342 235.167 239.167 231.342 239.167 226.623C239.167 221.905 235.342 218.08 230.623 218.08C225.905 218.08 222.08 221.905 222.08 226.623Z" fill="#1E1E1E"/>
<path d="M41.2465 226.623C41.2465 236.909 32.9086 245.246 22.6232 245.246C12.3379 245.246 4 236.909 4 226.623C4 216.338 12.3379 208 22.6232 208C32.9086 208 41.2465 216.338 41.2465 226.623ZM14.0798 226.623C14.0798 231.342 17.9048 235.167 22.6232 235.167C27.3417 235.167 31.1667 231.342 31.1667 226.623C31.1667 221.905 27.3417 218.08 22.6232 218.08C17.9048 218.08 14.0798 221.905 14.0798 226.623Z" fill="#1E1E1E"/>
</g>
<g filter="url(#filter1_d_13_35)">
<path d="M60.96 81.928H80.928V138.76L116.768 81.928H136.736V165H116.768V107.272L80.928 165H60.96V81.928Z" fill="#1E1E1E"/>
<path d="M116.96 81.928H136.928V138.76L172.768 81.928H192.736V165H172.768V107.272L136.928 165H116.96V81.928Z" fill="#B91E1E"/>
<path d="M116.96 81.928H136.928V138.76L172.768 81.928H192.736V165H172.768V107.272L136.928 165H116.96V81.928Z" fill="#721616" fill-opacity="0.2"/>
</g>
<g filter="url(#filter2_d_13_35)">
<path d="M270.96 81.928H326.384V96.136H290.928V165H270.96V81.928ZM337.192 103.048H354.856V109.192C355.965 106.461 358.141 104.541 361.384 103.432C364.627 102.323 369.448 101.768 375.848 101.768C381.224 101.768 385.533 102.195 388.776 103.048C392.104 103.901 394.621 105.267 396.328 107.144C397.949 109.021 399.059 111.112 399.656 113.416C400.253 115.635 400.552 118.707 400.552 122.632V142.984C400.552 149.128 399.656 153.864 397.864 157.192C396.072 160.52 393.299 162.867 389.544 164.232C385.875 165.597 380.84 166.28 374.44 166.28C368.296 166.28 363.859 165.768 361.128 164.744C358.397 163.72 356.648 161.715 355.88 158.728V191.624H337.192V103.048ZM368.68 154.632C372.349 154.632 375.123 154.376 377 153.864C378.877 153.352 380.157 152.456 380.84 151.176C381.523 149.896 381.864 147.976 381.864 145.416V122.504C381.864 119.688 381.565 117.683 380.968 116.488C380.371 115.208 379.176 114.355 377.384 113.928C375.592 113.501 372.648 113.288 368.552 113.288C365.053 113.288 362.365 113.587 360.488 114.184C358.696 114.781 357.459 115.72 356.776 117C356.179 118.28 355.88 120.115 355.88 122.504V145.416C355.88 147.976 356.179 149.896 356.776 151.176C357.459 152.456 358.696 153.352 360.488 153.864C362.28 154.376 365.011 154.632 368.68 154.632ZM432.728 164.488L408.024 103.048H428.376L442.328 146.824L455 103.048H474.328L440.408 191.624H421.464L432.728 164.488ZM483.567 103.048H543.599V165H524.911V114.952H502.255V165H483.567V103.048ZM559.942 103.048H619.974V165H601.286V114.952H578.63V165H559.942V103.048Z" fill="#B91E1E"/>
<path d="M270.96 81.928H326.384V96.136H290.928V165H270.96V81.928ZM337.192 103.048H354.856V109.192C355.965 106.461 358.141 104.541 361.384 103.432C364.627 102.323 369.448 101.768 375.848 101.768C381.224 101.768 385.533 102.195 388.776 103.048C392.104 103.901 394.621 105.267 396.328 107.144C397.949 109.021 399.059 111.112 399.656 113.416C400.253 115.635 400.552 118.707 400.552 122.632V142.984C400.552 149.128 399.656 153.864 397.864 157.192C396.072 160.52 393.299 162.867 389.544 164.232C385.875 165.597 380.84 166.28 374.44 166.28C368.296 166.28 363.859 165.768 361.128 164.744C358.397 163.72 356.648 161.715 355.88 158.728V191.624H337.192V103.048ZM368.68 154.632C372.349 154.632 375.123 154.376 377 153.864C378.877 153.352 380.157 152.456 380.84 151.176C381.523 149.896 381.864 147.976 381.864 145.416V122.504C381.864 119.688 381.565 117.683 380.968 116.488C380.371 115.208 379.176 114.355 377.384 113.928C375.592 113.501 372.648 113.288 368.552 113.288C365.053 113.288 362.365 113.587 360.488 114.184C358.696 114.781 357.459 115.72 356.776 117C356.179 118.28 355.88 120.115 355.88 122.504V145.416C355.88 147.976 356.179 149.896 356.776 151.176C357.459 152.456 358.696 153.352 360.488 153.864C362.28 154.376 365.011 154.632 368.68 154.632ZM432.728 164.488L408.024 103.048H428.376L442.328 146.824L455 103.048H474.328L440.408 191.624H421.464L432.728 164.488ZM483.567 103.048H543.599V165H524.911V114.952H502.255V165H483.567V103.048ZM559.942 103.048H619.974V165H601.286V114.952H578.63V165H559.942V103.048Z" fill="#721616" fill-opacity="0.2"/>
</g>
<path d="M279.426 213.18C278.898 213.18 278.424 213.156 278.004 213.108C277.596 213.06 277.146 212.97 276.654 212.838C276.102 212.694 275.646 212.508 275.286 212.28C274.926 212.04 274.626 211.71 274.386 211.29C274.134 210.87 274.008 210.372 274.008 209.796V204.666C274.008 202.314 275.814 201.138 279.426 201.138C280.35 201.138 281.586 201.27 283.134 201.534V203.64C281.742 203.304 280.518 203.136 279.462 203.136C279.018 203.136 278.67 203.148 278.418 203.172C278.178 203.196 277.926 203.256 277.662 203.352C277.098 203.544 276.816 203.97 276.816 204.63V209.598C276.816 210.654 277.782 211.182 279.714 211.182C280.542 211.182 281.706 211.008 283.206 210.66V212.784C281.922 213.048 280.662 213.18 279.426 213.18ZM289.068 213.18C288.528 213.18 288.084 213.162 287.736 213.126C287.388 213.09 287.016 213.018 286.62 212.91C286.188 212.79 285.84 212.622 285.576 212.406C285.312 212.178 285.09 211.86 284.91 211.452C284.73 211.056 284.64 210.576 284.64 210.012V207.438C284.64 206.862 284.73 206.358 284.91 205.926C285.09 205.494 285.324 205.158 285.612 204.918C285.864 204.714 286.194 204.546 286.602 204.414C287.022 204.27 287.43 204.18 287.826 204.144C288.282 204.12 288.696 204.108 289.068 204.108C289.62 204.108 290.058 204.126 290.382 204.162C290.718 204.186 291.084 204.258 291.48 204.378C291.912 204.51 292.26 204.69 292.524 204.918C292.8 205.146 293.034 205.47 293.226 205.89C293.406 206.322 293.496 206.838 293.496 207.438V210.012C293.496 210.552 293.406 211.026 293.226 211.434C293.058 211.842 292.836 212.16 292.56 212.388C292.32 212.592 291.99 212.76 291.57 212.892C291.162 213.012 290.76 213.09 290.364 213.126C290.004 213.162 289.572 213.18 289.068 213.18ZM289.068 211.542C289.56 211.542 289.932 211.506 290.184 211.434C290.436 211.35 290.61 211.224 290.706 211.056C290.814 210.888 290.868 210.642 290.868 210.318V207.024C290.868 206.544 290.742 206.208 290.49 206.016C290.238 205.824 289.764 205.728 289.068 205.728C288.372 205.728 287.898 205.824 287.646 206.016C287.394 206.208 287.268 206.544 287.268 207.024V210.318C287.268 210.642 287.316 210.888 287.412 211.056C287.52 211.224 287.7 211.35 287.952 211.434C288.204 211.506 288.576 211.542 289.068 211.542ZM295.545 204.288H300.369C301.317 204.288 302.031 204.366 302.511 204.522C302.991 204.678 303.303 204.906 303.447 205.206C303.603 205.494 303.681 205.896 303.681 206.412V206.718C303.681 207.174 303.549 207.516 303.285 207.744C303.033 207.972 302.625 208.146 302.061 208.266V208.338C302.721 208.446 303.231 208.656 303.591 208.968C303.951 209.28 304.131 209.682 304.131 210.174V210.696C304.131 211.488 303.837 212.07 303.249 212.442C302.661 212.814 301.695 213 300.351 213H295.545V204.288ZM299.451 207.726C299.919 207.726 300.267 207.696 300.495 207.636C300.723 207.576 300.879 207.486 300.963 207.366C301.047 207.234 301.089 207.042 301.089 206.79V206.574C301.089 206.346 300.981 206.172 300.765 206.052C300.561 205.932 300.105 205.872 299.397 205.872H298.137V207.726H299.451ZM299.505 211.416C300.237 211.416 300.753 211.338 301.053 211.182C301.353 211.026 301.503 210.78 301.503 210.444V210.12C301.503 209.892 301.443 209.718 301.323 209.598C301.215 209.478 301.029 209.394 300.765 209.346C300.501 209.298 300.111 209.274 299.595 209.274H298.137V211.416H299.505ZM306.004 204.288H308.488V205.152C308.644 204.768 308.95 204.498 309.406 204.342C309.862 204.186 310.54 204.108 311.44 204.108C312.196 204.108 312.802 204.168 313.258 204.288C313.726 204.408 314.08 204.6 314.32 204.864C314.548 205.128 314.704 205.422 314.788 205.746C314.872 206.058 314.914 206.49 314.914 207.042V209.904C314.914 210.768 314.788 211.434 314.536 211.902C314.284 212.37 313.894 212.7 313.366 212.892C312.85 213.084 312.142 213.18 311.242 213.18C310.378 213.18 309.754 213.108 309.37 212.964C308.986 212.82 308.74 212.538 308.632 212.118V216.744H306.004V204.288ZM310.432 211.542C310.948 211.542 311.338 211.506 311.602 211.434C311.866 211.362 312.046 211.236 312.142 211.056C312.238 210.876 312.286 210.606 312.286 210.246V207.024C312.286 206.628 312.244 206.346 312.16 206.178C312.076 205.998 311.908 205.878 311.656 205.818C311.404 205.758 310.99 205.728 310.414 205.728C309.922 205.728 309.544 205.77 309.28 205.854C309.028 205.938 308.854 206.07 308.758 206.25C308.674 206.43 308.632 206.688 308.632 207.024V210.246C308.632 210.606 308.674 210.876 308.758 211.056C308.854 211.236 309.028 211.362 309.28 211.434C309.532 211.506 309.916 211.542 310.432 211.542ZM321.346 213.18C318.262 213.18 316.72 212.238 316.72 210.354V207.222C316.72 206.13 317.068 205.338 317.764 204.846C318.472 204.354 319.558 204.108 321.022 204.108C322.402 204.108 323.41 204.348 324.046 204.828C324.694 205.296 325.018 206.094 325.018 207.222V209.346H319.366V210.138C319.366 210.642 319.546 211.002 319.906 211.218C320.266 211.434 320.914 211.542 321.85 211.542C322.714 211.542 323.686 211.416 324.766 211.164V212.838C323.698 213.066 322.558 213.18 321.346 213.18ZM322.516 207.852V206.592C322.516 206.304 322.396 206.088 322.156 205.944C321.928 205.8 321.538 205.728 320.986 205.728C320.35 205.728 319.924 205.8 319.708 205.944C319.48 206.1 319.366 206.316 319.366 206.592V207.852H322.516ZM327.027 204.288H330.375L332.499 210.3L334.749 204.288H337.917V213H335.541V207.384H335.433L333.327 213H331.473L329.439 207.384H329.331V213H327.027V204.288ZM344.602 213.18C341.518 213.18 339.976 212.238 339.976 210.354V207.222C339.976 206.13 340.324 205.338 341.02 204.846C341.728 204.354 342.814 204.108 344.278 204.108C345.658 204.108 346.666 204.348 347.302 204.828C347.95 205.296 348.274 206.094 348.274 207.222V209.346H342.622V210.138C342.622 210.642 342.802 211.002 343.162 211.218C343.522 211.434 344.17 211.542 345.106 211.542C345.97 211.542 346.942 211.416 348.022 211.164V212.838C346.954 213.066 345.814 213.18 344.602 213.18ZM345.772 207.852V206.592C345.772 206.304 345.652 206.088 345.412 205.944C345.184 205.8 344.794 205.728 344.242 205.728C343.606 205.728 343.18 205.8 342.964 205.944C342.736 206.1 342.622 206.316 342.622 206.592V207.852H345.772ZM350.283 204.288H352.911V207.636H356.205V204.288H358.833V213H356.205V209.364H352.911V213H350.283V204.288ZM361.129 204.288H363.757V207.636H367.051V204.288H369.679V213H367.051V209.364H363.757V213H361.129V204.288ZM371.974 204.288H374.602V207.204H375.502C376.714 207.204 377.602 207.27 378.166 207.402C378.742 207.534 379.132 207.768 379.336 208.104C379.552 208.428 379.66 208.944 379.66 209.652V210.678C379.66 211.518 379.33 212.118 378.67 212.478C378.022 212.826 376.984 213 375.556 213H371.974V204.288ZM381.082 204.288H383.71V213H381.082V204.288ZM375.43 211.362C375.91 211.362 376.264 211.332 376.492 211.272C376.72 211.2 376.87 211.092 376.942 210.948C377.014 210.804 377.05 210.588 377.05 210.3V209.814C377.05 209.55 377.002 209.352 376.906 209.22C376.822 209.076 376.666 208.98 376.438 208.932C376.222 208.884 375.898 208.86 375.466 208.86H374.566V211.362H375.43ZM390.393 213.18C387.309 213.18 385.767 212.238 385.767 210.354V207.222C385.767 206.13 386.115 205.338 386.811 204.846C387.519 204.354 388.605 204.108 390.069 204.108C391.449 204.108 392.457 204.348 393.093 204.828C393.741 205.296 394.065 206.094 394.065 207.222V209.346H388.413V210.138C388.413 210.642 388.593 211.002 388.953 211.218C389.313 211.434 389.961 211.542 390.897 211.542C391.761 211.542 392.733 211.416 393.813 211.164V212.838C392.745 213.066 391.605 213.18 390.393 213.18ZM391.563 207.852V206.592C391.563 206.304 391.443 206.088 391.203 205.944C390.975 205.8 390.585 205.728 390.033 205.728C389.397 205.728 388.971 205.8 388.755 205.944C388.527 206.1 388.413 206.316 388.413 206.592V207.852H391.563ZM404.47 213.18C404.014 213.18 403.654 213.168 403.39 213.144C403.126 213.132 402.802 213.102 402.418 213.054C402.034 213.006 401.716 212.922 401.464 212.802C401.224 212.682 400.972 212.502 400.708 212.262C400.216 211.854 399.97 211.158 399.97 210.174V207.276C399.97 206.484 400.15 205.824 400.51 205.296C400.642 205.104 400.834 204.93 401.086 204.774C401.35 204.606 401.614 204.474 401.878 204.378C402.094 204.306 402.382 204.246 402.742 204.198C403.102 204.15 403.42 204.12 403.696 204.108H404.65C405.322 204.108 406.204 204.216 407.296 204.432V206.16C406.06 205.872 405.112 205.728 404.452 205.728C403.24 205.728 402.634 206.136 402.634 206.952V210.156C402.634 211.08 403.3 211.542 404.632 211.542C405.28 211.542 406.21 211.41 407.422 211.146V212.874C406.33 213.078 405.346 213.18 404.47 213.18ZM410.994 206.016H408.114V204.288H416.502V206.016H413.622V213H410.994V206.016ZM418.011 204.288H420.495V205.152C420.651 204.768 420.957 204.498 421.413 204.342C421.869 204.186 422.547 204.108 423.447 204.108C424.203 204.108 424.809 204.168 425.265 204.288C425.733 204.408 426.087 204.6 426.327 204.864C426.555 205.128 426.711 205.422 426.795 205.746C426.879 206.058 426.921 206.49 426.921 207.042V209.904C426.921 210.768 426.795 211.434 426.543 211.902C426.291 212.37 425.901 212.7 425.373 212.892C424.857 213.084 424.149 213.18 423.249 213.18C422.385 213.18 421.761 213.108 421.377 212.964C420.993 212.82 420.747 212.538 420.639 212.118V216.744H418.011V204.288ZM422.439 211.542C422.955 211.542 423.345 211.506 423.609 211.434C423.873 211.362 424.053 211.236 424.149 211.056C424.245 210.876 424.293 210.606 424.293 210.246V207.024C424.293 206.628 424.251 206.346 424.167 206.178C424.083 205.998 423.915 205.878 423.663 205.818C423.411 205.758 422.997 205.728 422.421 205.728C421.929 205.728 421.551 205.77 421.287 205.854C421.035 205.938 420.861 206.07 420.765 206.25C420.681 206.43 420.639 206.688 420.639 207.024V210.246C420.639 210.606 420.681 210.876 420.765 211.056C420.861 211.236 421.035 211.362 421.287 211.434C421.539 211.506 421.923 211.542 422.439 211.542ZM433.156 213.18C432.616 213.18 432.172 213.162 431.824 213.126C431.476 213.09 431.104 213.018 430.708 212.91C430.276 212.79 429.928 212.622 429.664 212.406C429.4 212.178 429.178 211.86 428.998 211.452C428.818 211.056 428.728 210.576 428.728 210.012V207.438C428.728 206.862 428.818 206.358 428.998 205.926C429.178 205.494 429.412 205.158 429.7 204.918C429.952 204.714 430.282 204.546 430.69 204.414C431.11 204.27 431.518 204.18 431.914 204.144C432.37 204.12 432.784 204.108 433.156 204.108C433.708 204.108 434.146 204.126 434.47 204.162C434.806 204.186 435.172 204.258 435.568 204.378C436 204.51 436.348 204.69 436.612 204.918C436.888 205.146 437.122 205.47 437.314 205.89C437.494 206.322 437.584 206.838 437.584 207.438V210.012C437.584 210.552 437.494 211.026 437.314 211.434C437.146 211.842 436.924 212.16 436.648 212.388C436.408 212.592 436.078 212.76 435.658 212.892C435.25 213.012 434.848 213.09 434.452 213.126C434.092 213.162 433.66 213.18 433.156 213.18ZM433.156 211.542C433.648 211.542 434.02 211.506 434.272 211.434C434.524 211.35 434.698 211.224 434.794 211.056C434.902 210.888 434.956 210.642 434.956 210.318V207.024C434.956 206.544 434.83 206.208 434.578 206.016C434.326 205.824 433.852 205.728 433.156 205.728C432.46 205.728 431.986 205.824 431.734 206.016C431.482 206.208 431.356 206.544 431.356 207.024V210.318C431.356 210.642 431.404 210.888 431.5 211.056C431.608 211.224 431.788 211.35 432.04 211.434C432.292 211.506 432.664 211.542 433.156 211.542ZM439.632 204.288H442.26V209.976L445.698 204.288H448.326V213H445.698V207.15L442.26 213H439.632V204.288ZM452.724 206.016H449.844V204.288H458.232V206.016H455.352V213H452.724V206.016ZM464.116 213.18C461.032 213.18 459.49 212.238 459.49 210.354V207.222C459.49 206.13 459.838 205.338 460.534 204.846C461.242 204.354 462.328 204.108 463.792 204.108C465.172 204.108 466.18 204.348 466.816 204.828C467.464 205.296 467.788 206.094 467.788 207.222V209.346H462.136V210.138C462.136 210.642 462.316 211.002 462.676 211.218C463.036 211.434 463.684 211.542 464.62 211.542C465.484 211.542 466.456 211.416 467.536 211.164V212.838C466.468 213.066 465.328 213.18 464.116 213.18ZM465.286 207.852V206.592C465.286 206.304 465.166 206.088 464.926 205.944C464.698 205.8 464.308 205.728 463.756 205.728C463.12 205.728 462.694 205.8 462.478 205.944C462.25 206.1 462.136 206.316 462.136 206.592V207.852H465.286ZM470.193 213.144C469.929 213.144 469.617 213.108 469.257 213.036V211.092C469.401 211.116 469.551 211.128 469.707 211.128C470.151 211.128 470.511 210.99 470.787 210.714C471.063 210.438 471.273 209.898 471.417 209.094C471.573 208.29 471.651 207.126 471.651 205.602V204.288H478.473V213H475.845V205.962H473.847V206.178C473.847 208.038 473.685 209.478 473.361 210.498C473.037 211.518 472.611 212.214 472.083 212.586C471.555 212.958 470.925 213.144 470.193 213.144ZM480.783 204.288H483.411V207.204H484.419C485.631 207.204 486.531 207.27 487.119 207.402C487.719 207.534 488.127 207.768 488.343 208.104C488.571 208.44 488.685 208.956 488.685 209.652V210.678C488.685 211.506 488.343 212.1 487.659 212.46C486.975 212.82 485.913 213 484.473 213H480.783V204.288ZM484.347 211.362C484.827 211.362 485.181 211.332 485.409 211.272C485.637 211.2 485.787 211.092 485.859 210.948C485.931 210.804 485.967 210.588 485.967 210.3V209.814C485.967 209.55 485.919 209.352 485.823 209.22C485.739 209.076 485.583 208.98 485.355 208.932C485.139 208.884 484.815 208.86 484.383 208.86H483.375V211.362H484.347ZM490.662 204.288H493.29V207.636H496.584V204.288H499.212V213H496.584V209.364H493.29V213H490.662V204.288ZM501.507 204.288H504.135V207.204H505.035C506.247 207.204 507.135 207.27 507.699 207.402C508.275 207.534 508.665 207.768 508.869 208.104C509.085 208.428 509.193 208.944 509.193 209.652V210.678C509.193 211.518 508.863 212.118 508.203 212.478C507.555 212.826 506.517 213 505.089 213H501.507V204.288ZM510.615 204.288H513.243V213H510.615V204.288ZM504.963 211.362C505.443 211.362 505.797 211.332 506.025 211.272C506.253 211.2 506.403 211.092 506.475 210.948C506.547 210.804 506.583 210.588 506.583 210.3V209.814C506.583 209.55 506.535 209.352 506.439 209.22C506.355 209.076 506.199 208.98 505.971 208.932C505.755 208.884 505.431 208.86 504.999 208.86H504.099V211.362H504.963ZM519.926 213.18C516.842 213.18 515.3 212.238 515.3 210.354V207.222C515.3 206.13 515.648 205.338 516.344 204.846C517.052 204.354 518.138 204.108 519.602 204.108C520.982 204.108 521.99 204.348 522.626 204.828C523.274 205.296 523.598 206.094 523.598 207.222V209.346H517.946V210.138C517.946 210.642 518.126 211.002 518.486 211.218C518.846 211.434 519.494 211.542 520.43 211.542C521.294 211.542 522.266 211.416 523.346 211.164V212.838C522.278 213.066 521.138 213.18 519.926 213.18ZM521.096 207.852V206.592C521.096 206.304 520.976 206.088 520.736 205.944C520.508 205.8 520.118 205.728 519.566 205.728C518.93 205.728 518.504 205.8 518.288 205.944C518.06 206.1 517.946 206.316 517.946 206.592V207.852H521.096ZM529.756 204.288H533.104L535.228 210.3L537.478 204.288H540.646V213H538.27V207.384H538.162L536.056 213H534.202L532.168 207.384H532.06V213H529.756V204.288ZM545.423 213.18C544.607 213.18 543.995 213.108 543.587 212.964C543.191 212.808 542.909 212.538 542.741 212.154C542.585 211.758 542.507 211.17 542.507 210.39C542.507 209.694 542.591 209.148 542.759 208.752C542.939 208.356 543.221 208.074 543.605 207.906C544.001 207.726 544.541 207.636 545.225 207.636H548.177V207.042C548.177 206.67 548.123 206.394 548.015 206.214C547.919 206.034 547.733 205.908 547.457 205.836C547.193 205.764 546.791 205.728 546.251 205.728C545.507 205.728 544.487 205.8 543.191 205.944V204.288C544.139 204.168 545.249 204.108 546.521 204.108C547.637 204.108 548.495 204.192 549.095 204.36C549.707 204.528 550.145 204.816 550.409 205.224C550.673 205.632 550.805 206.226 550.805 207.006V213H548.231V212.208C548.027 212.556 547.751 212.802 547.403 212.946C547.055 213.102 546.395 213.18 545.423 213.18ZM546.449 211.542C546.977 211.542 547.355 211.524 547.583 211.488C547.751 211.464 547.865 211.428 547.925 211.38C547.997 211.332 548.057 211.254 548.105 211.146C548.153 211.062 548.177 210.936 548.177 210.768V209.076H546.377C545.969 209.076 545.681 209.106 545.513 209.166C545.345 209.214 545.231 209.322 545.171 209.49C545.111 209.646 545.081 209.928 545.081 210.336C545.081 210.732 545.111 211.008 545.171 211.164C545.231 211.32 545.345 211.422 545.513 211.47C545.693 211.518 546.005 211.542 546.449 211.542ZM555.205 206.016H552.325V204.288H560.713V206.016H557.833V213H555.205V206.016ZM566.596 213.18C563.512 213.18 561.97 212.238 561.97 210.354V207.222C561.97 206.13 562.318 205.338 563.014 204.846C563.722 204.354 564.808 204.108 566.272 204.108C567.652 204.108 568.66 204.348 569.296 204.828C569.944 205.296 570.268 206.094 570.268 207.222V209.346H564.616V210.138C564.616 210.642 564.796 211.002 565.156 211.218C565.516 211.434 566.164 211.542 567.1 211.542C567.964 211.542 568.936 211.416 570.016 211.164V212.838C568.948 213.066 567.808 213.18 566.596 213.18ZM567.766 207.852V206.592C567.766 206.304 567.646 206.088 567.406 205.944C567.178 205.8 566.788 205.728 566.236 205.728C565.6 205.728 565.174 205.8 564.958 205.944C564.73 206.1 564.616 206.316 564.616 206.592V207.852H567.766ZM572.277 204.288H574.761V205.152C574.917 204.768 575.223 204.498 575.679 204.342C576.135 204.186 576.813 204.108 577.713 204.108C578.469 204.108 579.075 204.168 579.531 204.288C579.999 204.408 580.353 204.6 580.593 204.864C580.821 205.128 580.977 205.422 581.061 205.746C581.145 206.058 581.187 206.49 581.187 207.042V209.904C581.187 210.768 581.061 211.434 580.809 211.902C580.557 212.37 580.167 212.7 579.639 212.892C579.123 213.084 578.415 213.18 577.515 213.18C576.651 213.18 576.027 213.108 575.643 212.964C575.259 212.82 575.013 212.538 574.905 212.118V216.744H572.277V204.288ZM576.705 211.542C577.221 211.542 577.611 211.506 577.875 211.434C578.139 211.362 578.319 211.236 578.415 211.056C578.511 210.876 578.559 210.606 578.559 210.246V207.024C578.559 206.628 578.517 206.346 578.433 206.178C578.349 205.998 578.181 205.878 577.929 205.818C577.677 205.758 577.263 205.728 576.687 205.728C576.195 205.728 575.817 205.77 575.553 205.854C575.301 205.938 575.127 206.07 575.031 206.25C574.947 206.43 574.905 206.688 574.905 207.024V210.246C574.905 210.606 574.947 210.876 575.031 211.056C575.127 211.236 575.301 211.362 575.553 211.434C575.805 211.506 576.189 211.542 576.705 211.542ZM583.246 204.288H585.874V209.976L589.312 204.288H591.94V213H589.312V207.15L585.874 213H583.246V204.288ZM596.716 213.18C595.9 213.18 595.288 213.108 594.88 212.964C594.484 212.808 594.202 212.538 594.034 212.154C593.878 211.758 593.8 211.17 593.8 210.39C593.8 209.694 593.884 209.148 594.052 208.752C594.232 208.356 594.514 208.074 594.898 207.906C595.294 207.726 595.834 207.636 596.518 207.636H599.47V207.042C599.47 206.67 599.416 206.394 599.308 206.214C599.212 206.034 599.026 205.908 598.75 205.836C598.486 205.764 598.084 205.728 597.544 205.728C596.8 205.728 595.78 205.8 594.484 205.944V204.288C595.432 204.168 596.542 204.108 597.814 204.108C598.93 204.108 599.788 204.192 600.388 204.36C601 204.528 601.438 204.816 601.702 205.224C601.966 205.632 602.098 206.226 602.098 207.006V213H599.524V212.208C599.32 212.556 599.044 212.802 598.696 212.946C598.348 213.102 597.688 213.18 596.716 213.18ZM597.742 211.542C598.27 211.542 598.648 211.524 598.876 211.488C599.044 211.464 599.158 211.428 599.218 211.38C599.29 211.332 599.35 211.254 599.398 211.146C599.446 211.062 599.47 210.936 599.47 210.768V209.076H597.67C597.262 209.076 596.974 209.106 596.806 209.166C596.638 209.214 596.524 209.322 596.464 209.49C596.404 209.646 596.374 209.928 596.374 210.336C596.374 210.732 596.404 211.008 596.464 211.164C596.524 211.32 596.638 211.422 596.806 211.47C596.986 211.518 597.298 211.542 597.742 211.542ZM604.806 213.144C604.542 213.144 604.23 213.108 603.87 213.036V211.092C604.014 211.116 604.164 211.128 604.32 211.128C604.764 211.128 605.124 210.99 605.4 210.714C605.676 210.438 605.886 209.898 606.03 209.094C606.186 208.29 606.264 207.126 606.264 205.602V204.288H613.086V213H610.458V205.962H608.46V206.178C608.46 208.038 608.298 209.478 607.974 210.498C607.65 211.518 607.224 212.214 606.696 212.586C606.168 212.958 605.538 213.144 604.806 213.144ZM615.396 204.288H618.024V207.204H618.924C620.136 207.204 621.024 207.27 621.588 207.402C622.164 207.534 622.554 207.768 622.758 208.104C622.974 208.428 623.082 208.944 623.082 209.652V210.678C623.082 211.518 622.752 212.118 622.092 212.478C621.444 212.826 620.406 213 618.978 213H615.396V204.288ZM624.504 204.288H627.132V213H624.504V204.288ZM618.852 211.362C619.332 211.362 619.686 211.332 619.914 211.272C620.142 211.2 620.292 211.092 620.364 210.948C620.436 210.804 620.472 210.588 620.472 210.3V209.814C620.472 209.55 620.424 209.352 620.328 209.22C620.244 209.076 620.088 208.98 619.86 208.932C619.644 208.884 619.32 208.86 618.888 208.86H617.988V211.362H618.852Z" fill="#1E1E1E"/>
<defs>
<filter id="filter0_d_13_35" x="0" y="0" width="253.246" height="253.246" filterUnits="userSpaceOnUse" color-interpolation-filters="sRGB">
<feFlood flood-opacity="0" result="BackgroundImageFix"/>
<feColorMatrix in="SourceAlpha" type="matrix" values="0 0 0 0 0 0 0 0 0 0 0 0 0 0 0 0 0 0 127 0" result="hardAlpha"/>
<feOffset dy="4"/>
<feGaussianBlur stdDeviation="2"/>
<feComposite in2="hardAlpha" operator="out"/>
<feColorMatrix type="matrix" values="0 0 0 0 0 0 0 0 0 0 0 0 0 0 0 0 0 0 0.25 0"/>
<feBlend mode="normal" in2="BackgroundImageFix" result="effect1_dropShadow_13_35"/>
<feBlend mode="normal" in="SourceGraphic" in2="effect1_dropShadow_13_35" result="shape"/>
</filter>
<filter id="filter1_d_13_35" x="56.96" y="81.928" width="139.776" height="91.072" filterUnits="userSpaceOnUse" color-interpolation-filters="sRGB">
<feFlood flood-opacity="0" result="BackgroundImageFix"/>
<feColorMatrix in="SourceAlpha" type="matrix" values="0 0 0 0 0 0 0 0 0 0 0 0 0 0 0 0 0 0 127 0" result="hardAlpha"/>
<feOffset dy="4"/>
<feGaussianBlur stdDeviation="2"/>
<feComposite in2="hardAlpha" operator="out"/>
<feColorMatrix type="matrix" values="0 0 0 0 0 0 0 0 0 0 0 0 0 0 0 0 0 0 0.25 0"/>
<feBlend mode="normal" in2="BackgroundImageFix" result="effect1_dropShadow_13_35"/>
<feBlend mode="normal" in="SourceGraphic" in2="effect1_dropShadow_13_35" result="shape"/>
</filter>
<filter id="filter2_d_13_35" x="266.96" y="81.928" width="357.014" height="117.696" filterUnits="userSpaceOnUse" color-interpolation-filters="sRGB">
<feFlood flood-opacity="0" result="BackgroundImageFix"/>
<feColorMatrix in="SourceAlpha" type="matrix" values="0 0 0 0 0 0 0 0 0 0 0 0 0 0 0 0 0 0 127 0" result="hardAlpha"/>
<feOffset dy="4"/>
<feGaussianBlur stdDeviation="2"/>
<feComposite in2="hardAlpha" operator="out"/>
<feColorMatrix type="matrix" values="0 0 0 0 0 0 0 0 0 0 0 0 0 0 0 0 0 0 0.25 0"/>
<feBlend mode="normal" in2="BackgroundImageFix" result="effect1_dropShadow_13_35"/>
<feBlend mode="normal" in="SourceGraphic" in2="effect1_dropShadow_13_35" result="shape"/>
</filter>
</defs>
</svg>
